<?xml version="1.0" encoding="utf-8"?>
<!-- Generator: Adobe Illustrator 28.2.0, SVG Export Plug-In . SVG Version: 6.00 Build 0)  -->
<svg version="1.1" id="Camada_1" xmlns="http://www.w3.org/2000/svg" xmlns:xlink="http://www.w3.org/1999/xlink" x="0px" y="0px"
	 viewBox="0 0 100 150" style="enable-background:new 0 0 100 150;" xml:space="preserve">
<style type="text/css">
	.st0{fill:none;stroke:#FFFFFF;stroke-miterlimit:10;}
</style>
<path class="st0" d="M15.56,55.44C15.54,61.96,15.52,68.48,15.5,75v24.12c0,0-0.08,0.44,0.14,0.97c0.6,1.44,3.1,1.61,3.95,1.68
	c3.01,0.26,8.89,1.23,16.93,2.67"/>
<path class="st0" d="M84.5,57c0,0,0,3.74,0,5.52c0,4.16,0,8.32,0,12.48v24.12c0,0,0.08,0.44-0.14,0.97c-0.6,1.44-3.08,1.6-3.95,1.68
	c-3.02,0.26-8.93,1.17-16.94,2.47"/>
<path class="st0" d="M63.58,17.39"/>
<path class="st0" d="M84.44,55.04c0.02,2.65,0.04,5.31,0.06,7.96"/>
<path class="st0" d="M15.51,34.53c0-0.51-0.01-1.01-0.01-1.52c0,0,0.04-1.33,1.05-2.15c0.7-0.58,1.55-0.63,1.92-0.65
	c1.89-0.07,14.39-0.09,31.52,0"/>
<circle class="st0" cx="50" cy="105" r="13.5"/>
<path class="st0" d="M90.2,49.59c-0.84-1.73-1.68-4.22-1.26-7.05c0.37-2.49,1.43-3.39,1.06-4.67c-0.88-3.03-8.37-3.68-11.76-3.94
	c-6.67-0.52-16.24-0.98-28.41-0.65"/>
<path class="st0" d="M84.73,53.67c1.26-0.78,5.6-2.06,5.5-3.93c-0.13-2.43-6.75-3.11-8.31-3.39c-10.25-1.85-21.45-0.96-31.86-1.2"/>
<path class="st0" d="M88.95,44.86c2.98,0.86,6.15,0.86,9.22,0.56c-0.86,1.28-4.02,4.51-4.05,5.99c-0.04,1.62,2.85,5.15,3.66,6.61
	c-4.18-0.26-9.21-0.22-13.1-2.04"/>
<line class="st0" x1="15.56" y1="55.44" x2="15.49" y2="46.6"/>
<path class="st0" d="M9.79,49.59c0.84-1.73,1.68-4.22,1.26-7.05c-0.37-2.49-1.43-3.39-1.06-4.67c0.88-3.03,8.37-3.68,11.76-3.94
	c6.67-0.52,16.24-0.98,28.41-0.65"/>
<path class="st0" d="M15.27,53.67c-1.26-0.78-5.6-2.06-5.5-3.93c0.13-2.43,6.75-3.11,8.31-3.39c10.25-1.85,21.45-0.96,31.86-1.2
	l1.57-0.01"/>
<path class="st0" d="M11.05,44.86c-2.98,0.86-6.15,0.86-9.22,0.56c0.86,1.28,4.02,4.51,4.05,5.99c0.04,1.62-2.85,5.15-3.66,6.61
	c4.18-0.26,9.21-0.22,13.1-2.04"/>
<path class="st0" d="M84.49,34.56c0-0.51,0.01-1.01,0.01-1.52c0,0-0.04-1.33-1.05-2.15c-0.7-0.58-1.55-0.63-1.92-0.65
	c-1.89-0.07-14.39-0.09-31.52,0"/>
<line class="st0" x1="84.44" y1="55.47" x2="84.51" y2="46.62"/>
</svg>
